<mxfile host="app.diagrams.net" modified="2023-11-07T04:15:30.455Z" agent="Mozilla/5.0 (Windows NT 10.0; Win64; x64) AppleWebKit/537.36 (KHTML, like Gecko) Chrome/119.0.0.0 Safari/537.36" etag="g7fP3hMkCRRg27dLi2TL" version="22.0.8" type="device">
  <diagram name="Page-1" id="m_PVUNnjnnFQxlGxqVkp">
    <mxGraphModel dx="1193" dy="773" grid="1" gridSize="10" guides="1" tooltips="1" connect="1" arrows="1" fold="1" page="1" pageScale="1" pageWidth="1169" pageHeight="827" math="0" shadow="0">
      <root>
        <mxCell id="0" />
        <mxCell id="1" parent="0" />
        <mxCell id="zFDp9GB-JW8S8Rdeju2c-31" value="" style="image;html=1;image=img/lib/clip_art/computers/Laptop_128x128.png" vertex="1" parent="1">
          <mxGeometry x="705" width="150" height="190" as="geometry" />
        </mxCell>
        <mxCell id="zFDp9GB-JW8S8Rdeju2c-33" value="" style="image;html=1;image=img/lib/clip_art/people/Scientist_Man_128x128.png" vertex="1" parent="1">
          <mxGeometry x="315" y="20" width="150" height="150" as="geometry" />
        </mxCell>
        <object placeholders="1" c4Type="Relationship" c4Description="Logs in to office laptop" label="&lt;div style=&quot;text-align: left; font-size: 12px;&quot;&gt;&lt;div style=&quot;text-align: center; font-size: 12px;&quot;&gt;&lt;b style=&quot;font-size: 12px;&quot;&gt;%c4Description%&lt;/b&gt;&lt;/div&gt;&lt;/div&gt;" id="zFDp9GB-JW8S8Rdeju2c-34">
          <mxCell style="endArrow=blockThin;html=1;fontSize=12;fontColor=#404040;strokeWidth=1;endFill=1;strokeColor=#828282;elbow=vertical;metaEdit=1;endSize=14;startSize=14;jumpStyle=arc;jumpSize=16;rounded=0;edgeStyle=orthogonalEdgeStyle;" edge="1" parent="1">
            <mxGeometry width="240" relative="1" as="geometry">
              <mxPoint x="445" y="105" as="sourcePoint" />
              <mxPoint x="685" y="105" as="targetPoint" />
            </mxGeometry>
          </mxCell>
        </object>
        <mxCell id="zFDp9GB-JW8S8Rdeju2c-35" value="" style="image;html=1;image=img/lib/clip_art/computers/Laptop_128x128.png" vertex="1" parent="1">
          <mxGeometry x="705" y="440" width="150" height="190" as="geometry" />
        </mxCell>
        <mxCell id="zFDp9GB-JW8S8Rdeju2c-36" value="" style="image;html=1;image=img/lib/clip_art/people/Scientist_Man_128x128.png" vertex="1" parent="1">
          <mxGeometry x="315" y="460" width="150" height="150" as="geometry" />
        </mxCell>
        <object placeholders="1" c4Type="Relationship" c4Description="Use Keyboard Shortcut" label="&lt;div style=&quot;text-align: left; font-size: 12px;&quot;&gt;&lt;div style=&quot;text-align: center; font-size: 12px;&quot;&gt;&lt;b style=&quot;font-size: 12px;&quot;&gt;%c4Description%&lt;/b&gt;&lt;/div&gt;&lt;/div&gt;" id="zFDp9GB-JW8S8Rdeju2c-37">
          <mxCell style="endArrow=blockThin;html=1;fontSize=12;fontColor=#404040;strokeWidth=1;endFill=1;strokeColor=#828282;elbow=vertical;metaEdit=1;endSize=14;startSize=14;jumpStyle=arc;jumpSize=16;rounded=0;edgeStyle=orthogonalEdgeStyle;" edge="1" parent="1">
            <mxGeometry width="240" relative="1" as="geometry">
              <mxPoint x="445" y="545" as="sourcePoint" />
              <mxPoint x="685" y="545" as="targetPoint" />
            </mxGeometry>
          </mxCell>
        </object>
        <mxCell id="zFDp9GB-JW8S8Rdeju2c-38" value="" style="html=1;shadow=0;dashed=0;align=center;verticalAlign=middle;shape=mxgraph.arrows2.arrow;dy=0.6;dx=40;direction=south;notch=0;" vertex="1" parent="1">
          <mxGeometry x="550" y="280" width="70" height="100" as="geometry" />
        </mxCell>
      </root>
    </mxGraphModel>
  </diagram>
</mxfile>
